<!-- set of bedrooms -->
<svg viewBox="0 0 25 25" xmlns="http://www.w3.org/2000/svg">
    <pattern id="bg" x="-1" y="-1" width="2" height="2" patternUnits="userSpaceOnUse" patternContentUnits="userSpaceOnUse"><rect x="1" y="1" width="1" height="1" fill="#00000016" /><rect x="0" y="0" width="1" height="1" fill="#00000016" /><rect x="1" y="0" width="1" height="1" fill="#FFFFFF16" /><rect x="0" y="1" width="1" height="1" fill="#FFFFFF16" /></pattern><rect x="0" y="0" width="100%" height="100%" fill="url(#bg)" />
    <style>
* {
    stroke-width: 1;
    stroke-linejoin: round;
}
    </style>
    <g id="11x11">
        <g id="TL"><!-- Top Left Bedroom-->
            <path stroke="black" fill="none" d="
                M 0.5,0.5
                h 5 v 5 h -5 v -5
                Z
            "/>
            <rect fill="white" x="5" y="2" height="1" width="1" />
            <rect fill="red" x="2" y="1" height="2" width="2" />
        </g>
        <g id="TR"><!-- Top Right Bedroom-->
            <path stroke="black" fill="none" d="
                M 7.5,0.5
                h 5 v 5 h -5 v -5
                Z
            "/>
            <rect fill="white" x="7" y="3" height="1" width="1" />
            <rect fill="red" x="9" y="1" height="2" width="2" />
        </g>
        <g id="BL"><!-- Bottom Left Bedroom-->
            <path stroke="black" fill="none" d="
                M 0.5,7.5
                h 5 v 5 h -5 v -5
                Z
            "/>
            <rect fill="white" x="5" y="10" height="1" width="1" />
            <rect fill="red" x="2" y="8" height="2" width="2" />
        </g>
        <g id="BR"><!-- Bottom Right Bedroom-->
            <path stroke="black" fill="none" d="
                M 7.5,7.5
                h 5 v 5 h -5 v -5
                Z
            "/>
            <rect fill="white" x="7" y="9" height="1" width="1" />
            <rect fill="red" x="9" y="8" height="2" width="2" />
        </g>
    </g>
    <use href="#11x11" x="12" y="0"/>
    <use href="#11x11" x="0" y="12"/>
    <use href="#11x11" x="12" y="12"/>
</svg>