<!-- Empty room for storage / barn / fungus farm / etc. -->
<svg viewBox="0 0 25 25" xmlns="http://www.w3.org/2000/svg">
    <pattern id="bg" x="-1" y="-1" width="2" height="2" patternUnits="userSpaceOnUse" patternContentUnits="userSpaceOnUse"><rect x="1" y="1" width="1" height="1" fill="#00000016" /><rect x="0" y="0" width="1" height="1" fill="#00000016" /><rect x="1" y="0" width="1" height="1" fill="#FFFFFF16" /><rect x="0" y="1" width="1" height="1" fill="#FFFFFF16" /></pattern><rect x="0" y="0" width="100%" height="100%" fill="url(#bg)" />
    <style>
* {
    stroke-width: 1;
    stroke-linejoin: round;
}
    </style>
    <path stroke="black" fill="none" d="
        M 0.5,0.5
        h 12 v 1 v -1 h 12
        v 12 h -1 h 1 v 12
        h -12 v -1 v 1 h -12
        v -12 h 1 h -1 v -12
        Z
        M 12.5,12.5 v-1Zh1Zv1Zh-1Z
    "/>
    <rect fill="white" x="6" y="0" height="1" width="1" />
    <rect fill="white" x="0" y="6" height="1" width="1" />
    <rect fill="white" x="18" y="0" height="1" width="1" />
    <rect fill="white" x="0" y="18" height="1" width="1" />
    <rect fill="white" x="6" y="24" height="1" width="1" />
    <rect fill="white" x="24" y="6" height="1" width="1" />
    <rect fill="white" x="18" y="24" height="1" width="1" />
    <rect fill="white" x="24" y="18" height="1" width="1" />
</svg>